<?xml version="1.0" encoding="UTF-8" standalone="no"?>
<!DOCTYPE svg PUBLIC "-//W3C//DTD SVG 1.1//EN" "http://www.w3.org/Graphics/SVG/1.1/DTD/svg11.dtd">
<svg width="100%" height="100%" viewBox="0 0 772 772" version="1.1" xmlns="http://www.w3.org/2000/svg" xmlns:xlink="http://www.w3.org/1999/xlink" xml:space="preserve" xmlns:serif="http://www.serif.com/" style="fill-rule:evenodd;clip-rule:evenodd;stroke-linejoin:round;stroke-miterlimit:2;">
    <g transform="matrix(0.5,-6.12323e-17,6.12323e-17,-1,1.13687e-13,772)">
        <rect x="0" y="0" width="1544" height="772" style="fill:url(#_Radial1);"/>
    </g>
    <g transform="matrix(1,0,0,1,-341.207,-133.85)">
        <path d="M426.959,275.587C426.959,269.287 428.121,263.419 430.446,257.981C432.771,252.544 435.996,247.8 440.121,243.75C444.246,239.7 449.177,236.531 454.915,234.244C460.652,231.956 466.971,230.812 473.871,230.812C480.696,230.812 486.996,231.956 492.771,234.244C498.546,236.531 503.515,239.7 507.677,243.75C511.84,247.8 515.084,252.544 517.409,257.981C519.734,263.419 520.896,269.287 520.896,275.587C520.896,281.437 519.94,286.875 518.027,291.9C516.115,296.925 513.359,301.387 509.759,305.287L524.159,320.362L503.909,323.512L496.146,315.525C492.846,317.025 489.34,318.206 485.627,319.069C481.915,319.931 477.996,320.362 473.871,320.362C466.971,320.362 460.652,319.219 454.915,316.931C449.177,314.644 444.246,311.475 440.121,307.425C435.996,303.375 432.771,298.631 430.446,293.194C428.121,287.756 426.959,281.887 426.959,275.587ZM450.021,275.587C450.021,278.962 450.659,282.075 451.934,284.925C453.209,287.775 454.934,290.25 457.109,292.35C459.284,294.45 461.815,296.081 464.702,297.244C467.59,298.406 470.646,298.987 473.871,298.987C475.821,298.987 477.771,298.762 479.721,298.312L467.121,285.037L487.934,282.45L493.784,288.637C496.484,284.887 497.834,280.537 497.834,275.587C497.834,272.212 497.196,269.1 495.921,266.25C494.646,263.4 492.902,260.925 490.69,258.825C488.477,256.725 485.927,255.094 483.04,253.931C480.152,252.769 477.096,252.187 473.871,252.187C470.646,252.187 467.59,252.769 464.702,253.931C461.815,255.094 459.284,256.725 457.109,258.825C454.934,260.925 453.209,263.4 451.934,266.25C450.659,269.1 450.021,272.212 450.021,275.587Z" style="fill:rgb(255,148,20);fill-rule:nonzero;"/>
        <path d="M553.296,260.287L553.296,292.8C553.296,299.925 556.746,303.487 563.646,303.487C570.546,303.487 573.996,299.925 573.996,292.8L573.996,260.287L594.359,260.287L594.359,296.737C594.359,304.537 591.79,310.387 586.652,314.287C581.515,318.187 573.846,320.137 563.646,320.137C553.446,320.137 545.777,318.187 540.64,314.287C535.502,310.387 532.934,304.537 532.934,296.737L532.934,260.287L553.296,260.287Z" style="fill:rgb(255,148,20);fill-rule:nonzero;"/>
        <path d="M628.559,260.287L628.559,318L608.196,318L608.196,260.287L628.559,260.287ZM606.846,238.125C606.846,236.55 607.146,235.069 607.746,233.681C608.346,232.294 609.171,231.075 610.221,230.025C611.271,228.975 612.49,228.15 613.877,227.55C615.265,226.95 616.746,226.65 618.321,226.65C619.896,226.65 621.377,226.95 622.765,227.55C624.152,228.15 625.371,228.975 626.421,230.025C627.471,231.075 628.296,232.294 628.896,233.681C629.496,235.069 629.796,236.55 629.796,238.125C629.796,239.7 629.496,241.181 628.896,242.569C628.296,243.956 627.471,245.175 626.421,246.225C625.371,247.275 624.152,248.1 622.765,248.7C621.377,249.3 619.896,249.6 618.321,249.6C616.746,249.6 615.265,249.3 613.877,248.7C612.49,248.1 611.271,247.275 610.221,246.225C609.171,245.175 608.346,243.956 607.746,242.569C607.146,241.181 606.846,239.7 606.846,238.125Z" style="fill:rgb(255,148,20);fill-rule:nonzero;"/>
        <path d="M686.046,278.962C682.521,276.562 678.959,275.362 675.359,275.362C673.409,275.362 671.59,275.7 669.902,276.375C668.215,277.05 666.734,278.006 665.459,279.244C664.184,280.481 663.19,281.944 662.477,283.631C661.765,285.319 661.409,287.212 661.409,289.312C661.409,291.337 661.765,293.194 662.477,294.881C663.19,296.569 664.165,298.031 665.402,299.269C666.64,300.506 668.121,301.462 669.846,302.137C671.571,302.812 673.409,303.15 675.359,303.15C679.184,303.15 682.746,301.837 686.046,299.212L686.046,316.537C681.021,318.712 676.259,319.8 671.759,319.8C667.559,319.8 663.565,319.087 659.777,317.662C655.99,316.237 652.652,314.194 649.765,311.531C646.877,308.869 644.571,305.681 642.846,301.969C641.121,298.256 640.259,294.112 640.259,289.537C640.259,284.962 641.084,280.781 642.734,276.994C644.384,273.206 646.634,269.944 649.484,267.206C652.334,264.469 655.727,262.331 659.665,260.794C663.602,259.256 667.821,258.487 672.321,258.487C677.271,258.487 681.846,259.537 686.046,261.637L686.046,278.962Z" style="fill:rgb(255,148,20);fill-rule:nonzero;"/>
        <path d="M720.809,224.625L720.809,281.1L742.184,260.287L770.084,260.287L741.171,286.95L771.771,318L743.196,318L720.809,294.487L720.809,318L700.446,318L700.446,224.625L720.809,224.625Z" style="fill:rgb(255,148,20);fill-rule:nonzero;"/>
        <path d="M867.396,251.85L841.184,251.85L841.184,266.025L865.934,266.025L865.934,284.7L841.184,284.7L841.184,299.325L867.396,299.325L867.396,318L819.134,318L819.134,233.175L867.396,233.175L867.396,251.85Z" style="fill:rgb(255,148,20);fill-rule:nonzero;"/>
        <path d="M900.246,288.975C900.246,290.85 900.584,292.594 901.259,294.206C901.934,295.819 902.852,297.225 904.015,298.425C905.177,299.625 906.565,300.562 908.177,301.237C909.79,301.912 911.534,302.25 913.409,302.25C915.209,302.25 916.915,301.912 918.527,301.237C920.14,300.562 921.527,299.625 922.69,298.425C923.852,297.225 924.79,295.837 925.502,294.262C926.215,292.687 926.571,291 926.571,289.2C926.571,287.4 926.215,285.694 925.502,284.081C924.79,282.469 923.852,281.062 922.69,279.862C921.527,278.662 920.14,277.725 918.527,277.05C916.915,276.375 915.209,276.037 913.409,276.037C911.609,276.037 909.902,276.375 908.29,277.05C906.677,277.725 905.29,278.662 904.127,279.862C902.965,281.062 902.027,282.431 901.315,283.969C900.602,285.506 900.246,287.175 900.246,288.975ZM925.896,224.625L946.371,224.625L946.371,318L925.896,318L925.896,311.587C921.546,317.062 915.659,319.8 908.234,319.8C904.034,319.8 900.171,319.012 896.646,317.437C893.121,315.862 890.046,313.687 887.421,310.912C884.796,308.137 882.752,304.875 881.29,301.125C879.827,297.375 879.096,293.325 879.096,288.975C879.096,284.85 879.79,280.931 881.177,277.219C882.565,273.506 884.534,270.262 887.084,267.487C889.634,264.712 892.69,262.519 896.252,260.906C899.815,259.294 903.734,258.487 908.009,258.487C915.209,258.487 921.171,261 925.896,266.025L925.896,224.625Z" style="fill:rgb(255,148,20);fill-rule:nonzero;"/>
        <path d="M980.571,260.287L980.571,318L960.209,318L960.209,260.287L980.571,260.287ZM958.859,238.125C958.859,236.55 959.159,235.069 959.759,233.681C960.359,232.294 961.184,231.075 962.234,230.025C963.284,228.975 964.502,228.15 965.89,227.55C967.277,226.95 968.759,226.65 970.334,226.65C971.909,226.65 973.39,226.95 974.777,227.55C976.165,228.15 977.384,228.975 978.434,230.025C979.484,231.075 980.309,232.294 980.909,233.681C981.509,235.069 981.809,236.55 981.809,238.125C981.809,239.7 981.509,241.181 980.909,242.569C980.309,243.956 979.484,245.175 978.434,246.225C977.384,247.275 976.165,248.1 974.777,248.7C973.39,249.3 971.909,249.6 970.334,249.6C968.759,249.6 967.277,249.3 965.89,248.7C964.502,248.1 963.284,247.275 962.234,246.225C961.184,245.175 960.359,243.956 959.759,242.569C959.159,241.181 958.859,239.7 958.859,238.125Z" style="fill:rgb(255,148,20);fill-rule:nonzero;"/>
        <path d="M1017.25,277.275L1017.25,318L996.884,318L996.884,277.275L990.134,277.275L990.134,260.287L996.884,260.287L996.884,242.962L1017.25,242.962L1017.25,260.287L1028.83,260.287L1028.83,277.275L1017.25,277.275Z" style="fill:rgb(255,148,20);fill-rule:nonzero;"/>
        <path d="M429.896,383.95L411.213,383.95L411.213,393.925L428.234,393.925L428.234,407.067L411.213,407.067L411.213,430.5L395.696,430.5L395.696,370.808L429.896,370.808L429.896,383.95Z" style="fill:rgb(255,148,20);fill-rule:nonzero;"/>
        <path d="M466.946,404.296C466.471,402.29 465.495,400.681 464.017,399.467C462.539,398.253 460.745,397.646 458.634,397.646C456.417,397.646 454.609,398.226 453.211,399.387C451.812,400.549 450.928,402.185 450.559,404.296L466.946,404.296ZM450.163,412.608C450.163,418.783 453.066,421.871 458.871,421.871C461.985,421.871 464.334,420.604 465.917,418.071L479.771,418.071C476.974,427.36 469.981,432.004 458.792,432.004C455.362,432.004 452.221,431.49 449.371,430.46C446.521,429.431 444.08,427.967 442.048,426.067C440.016,424.167 438.446,421.897 437.338,419.258C436.23,416.619 435.675,413.664 435.675,410.392C435.675,407.014 436.203,403.966 437.259,401.248C438.314,398.53 439.818,396.221 441.771,394.321C443.724,392.421 446.086,390.956 448.857,389.927C451.627,388.898 454.755,388.383 458.238,388.383C461.668,388.383 464.756,388.898 467.5,389.927C470.245,390.956 472.567,392.447 474.467,394.4C476.367,396.353 477.818,398.741 478.821,401.565C479.824,404.388 480.325,407.568 480.325,411.104L480.325,412.608L450.163,412.608Z" style="fill:rgb(255,148,20);fill-rule:nonzero;"/>
        <path d="M501.78,410.075C501.78,411.394 502.017,412.622 502.492,413.756C502.967,414.891 503.614,415.881 504.432,416.725C505.25,417.569 506.226,418.229 507.361,418.704C508.496,419.179 509.723,419.417 511.042,419.417C512.309,419.417 513.509,419.179 514.644,418.704C515.779,418.229 516.755,417.569 517.573,416.725C518.391,415.881 519.051,414.904 519.552,413.796C520.054,412.687 520.305,411.5 520.305,410.233C520.305,408.967 520.054,407.766 519.552,406.631C519.051,405.497 518.391,404.507 517.573,403.662C516.755,402.818 515.779,402.158 514.644,401.683C513.509,401.208 512.309,400.971 511.042,400.971C509.723,400.971 508.496,401.208 507.361,401.683C506.226,402.158 505.25,402.818 504.432,403.662C503.614,404.507 502.967,405.47 502.492,406.552C502.017,407.634 501.78,408.808 501.78,410.075ZM519.83,389.887L534.238,389.887L534.238,430.5L519.83,430.5L519.83,425.987C516.768,429.84 512.625,431.767 507.4,431.767C504.445,431.767 501.727,431.226 499.246,430.144C496.766,429.062 494.602,427.544 492.755,425.592C490.907,423.639 489.469,421.343 488.44,418.704C487.411,416.065 486.896,413.189 486.896,410.075C486.896,407.172 487.398,404.415 488.4,401.802C489.403,399.19 490.802,396.907 492.596,394.954C494.391,393.001 496.528,391.458 499.009,390.323C501.489,389.188 504.234,388.621 507.242,388.621C512.309,388.621 516.505,390.389 519.83,393.925L519.83,389.887Z" style="fill:rgb(255,148,20);fill-rule:nonzero;"/>
        <path d="M559.967,401.842L559.967,430.5L545.638,430.5L545.638,401.842L540.888,401.842L540.888,389.887L545.638,389.887L545.638,377.696L559.967,377.696L559.967,389.887L568.121,389.887L568.121,401.842L559.967,401.842Z" style="fill:rgb(255,148,20);fill-rule:nonzero;"/>
        <path d="M587.834,389.887L587.834,412.767C587.834,417.781 590.262,420.287 595.117,420.287C599.973,420.287 602.4,417.781 602.4,412.767L602.4,389.887L616.73,389.887L616.73,415.537C616.73,421.026 614.922,425.143 611.307,427.887C607.691,430.632 602.295,432.004 595.117,432.004C587.939,432.004 582.543,430.632 578.927,427.887C575.312,425.143 573.505,421.026 573.505,415.537L573.505,389.887L587.834,389.887Z" style="fill:rgb(255,148,20);fill-rule:nonzero;"/>
        <path d="M626.467,389.887L640.796,389.887L640.796,396.537C642.327,394.11 644.2,392.249 646.417,390.956C648.634,389.663 651.22,389.017 654.175,389.017L655.402,389.017C655.851,389.017 656.366,389.069 656.946,389.175L656.946,402.871C655.046,401.921 652.988,401.446 650.771,401.446C647.446,401.446 644.952,402.435 643.29,404.415C641.627,406.394 640.796,409.283 640.796,413.083L640.796,430.5L626.467,430.5L626.467,389.887Z" style="fill:rgb(255,148,20);fill-rule:nonzero;"/>
        <path d="M693.521,404.296C693.046,402.29 692.07,400.681 690.592,399.467C689.114,398.253 687.32,397.646 685.209,397.646C682.992,397.646 681.184,398.226 679.786,399.387C678.387,400.549 677.503,402.185 677.134,404.296L693.521,404.296ZM676.738,412.608C676.738,418.783 679.641,421.871 685.446,421.871C688.56,421.871 690.909,420.604 692.492,418.071L706.346,418.071C703.549,427.36 696.556,432.004 685.367,432.004C681.937,432.004 678.796,431.49 675.946,430.46C673.096,429.431 670.655,427.967 668.623,426.067C666.591,424.167 665.021,421.897 663.913,419.258C662.805,416.619 662.25,413.664 662.25,410.392C662.25,407.014 662.778,403.966 663.834,401.248C664.889,398.53 666.393,396.221 668.346,394.321C670.299,392.421 672.661,390.956 675.432,389.927C678.202,388.898 681.33,388.383 684.813,388.383C688.243,388.383 691.331,388.898 694.075,389.927C696.82,390.956 699.142,392.447 701.042,394.4C702.942,396.353 704.393,398.741 705.396,401.565C706.399,404.388 706.9,407.568 706.9,411.104L706.9,412.608L676.738,412.608Z" style="fill:rgb(255,148,20);fill-rule:nonzero;"/>
        <path d="M728.355,410.075C728.355,411.394 728.592,412.622 729.067,413.756C729.542,414.891 730.189,415.881 731.007,416.725C731.825,417.569 732.801,418.229 733.936,418.704C735.071,419.179 736.298,419.417 737.617,419.417C738.884,419.417 740.084,419.179 741.219,418.704C742.354,418.229 743.33,417.569 744.148,416.725C744.966,415.881 745.626,414.904 746.127,413.796C746.629,412.687 746.88,411.5 746.88,410.233C746.88,408.967 746.629,407.766 746.127,406.631C745.626,405.497 744.966,404.507 744.148,403.662C743.33,402.818 742.354,402.158 741.219,401.683C740.084,401.208 738.884,400.971 737.617,400.971C736.35,400.971 735.15,401.208 734.015,401.683C732.88,402.158 731.904,402.818 731.086,403.662C730.268,404.507 729.608,405.47 729.107,406.552C728.605,407.634 728.355,408.808 728.355,410.075ZM746.405,364.792L760.813,364.792L760.813,430.5L746.405,430.5L746.405,425.987C743.343,429.84 739.2,431.767 733.975,431.767C731.02,431.767 728.302,431.212 725.821,430.104C723.341,428.996 721.177,427.465 719.33,425.512C717.482,423.56 716.044,421.264 715.015,418.625C713.986,415.986 713.471,413.136 713.471,410.075C713.471,407.172 713.959,404.415 714.936,401.802C715.912,399.19 717.298,396.907 719.092,394.954C720.887,393.001 723.037,391.458 725.544,390.323C728.051,389.188 730.809,388.621 733.817,388.621C738.884,388.621 743.08,390.389 746.405,393.925L746.405,364.792Z" style="fill:rgb(255,148,20);fill-rule:nonzero;"/>
        <rect x="798.813" y="370.808" width="15.517" height="59.692" style="fill:rgb(255,148,20);fill-rule:nonzero;"/>
        <path d="M825.492,389.887L839.821,389.887L839.821,394.875C843.727,391.128 848.107,389.254 852.963,389.254C858.98,389.254 863.571,391.787 866.738,396.854C869.957,391.735 874.549,389.175 880.513,389.175C882.413,389.175 884.207,389.452 885.896,390.006C887.585,390.56 889.037,391.431 890.25,392.619C891.464,393.806 892.427,395.35 893.14,397.25C893.852,399.15 894.209,401.446 894.209,404.137L894.209,430.5L879.88,430.5L879.88,410.471C879.88,408.412 879.734,406.724 879.444,405.404C879.154,404.085 878.732,403.056 878.177,402.317C877.623,401.578 876.977,401.076 876.238,400.812C875.499,400.549 874.707,400.417 873.863,400.417C869.271,400.417 866.975,403.768 866.975,410.471L866.975,430.5L852.646,430.5L852.646,410.471C852.646,408.412 852.514,406.71 852.25,405.365C851.987,404.019 851.604,402.95 851.102,402.158C850.601,401.367 849.955,400.826 849.163,400.535C848.371,400.245 847.448,400.1 846.392,400.1C845.495,400.1 844.65,400.232 843.859,400.496C843.067,400.76 842.368,401.274 841.761,402.04C841.154,402.805 840.679,403.86 840.336,405.206C839.993,406.552 839.821,408.307 839.821,410.471L839.821,430.5L825.492,430.5L825.492,389.887Z" style="fill:rgb(255,148,20);fill-rule:nonzero;"/>
        <path d="M917.325,410.075C917.325,411.394 917.563,412.622 918.038,413.756C918.513,414.891 919.159,415.881 919.977,416.725C920.796,417.569 921.772,418.229 922.907,418.704C924.041,419.179 925.268,419.417 926.588,419.417C927.855,419.417 929.055,419.179 930.19,418.704C931.325,418.229 932.301,417.569 933.119,416.725C933.937,415.881 934.597,414.904 935.098,413.796C935.6,412.687 935.85,411.5 935.85,410.233C935.85,408.967 935.6,407.766 935.098,406.631C934.597,405.497 933.937,404.507 933.119,403.662C932.301,402.818 931.325,402.158 930.19,401.683C929.055,401.208 927.855,400.971 926.588,400.971C925.268,400.971 924.041,401.208 922.907,401.683C921.772,402.158 920.796,402.818 919.977,403.662C919.159,404.507 918.513,405.47 918.038,406.552C917.563,407.634 917.325,408.808 917.325,410.075ZM935.375,389.887L949.784,389.887L949.784,430.5L935.375,430.5L935.375,425.987C932.314,429.84 928.171,431.767 922.946,431.767C919.991,431.767 917.273,431.226 914.792,430.144C912.312,429.062 910.148,427.544 908.3,425.592C906.453,423.639 905.015,421.343 903.986,418.704C902.957,416.065 902.442,413.189 902.442,410.075C902.442,407.172 902.943,404.415 903.946,401.802C904.949,399.19 906.348,396.907 908.142,394.954C909.937,393.001 912.074,391.458 914.555,390.323C917.035,389.188 919.78,388.621 922.788,388.621C927.855,388.621 932.05,390.389 935.375,393.925L935.375,389.887Z" style="fill:rgb(255,148,20);fill-rule:nonzero;"/>
        <path d="M972.821,409.996C972.821,411.315 973.059,412.542 973.534,413.677C974.009,414.812 974.655,415.801 975.473,416.646C976.291,417.49 977.268,418.15 978.402,418.625C979.537,419.1 980.764,419.337 982.084,419.337C983.35,419.337 984.551,419.1 985.686,418.625C986.821,418.15 987.797,417.49 988.615,416.646C989.433,415.801 990.093,414.812 990.594,413.677C991.096,412.542 991.346,411.342 991.346,410.075C991.346,408.756 991.096,407.542 990.594,406.433C990.093,405.325 989.42,404.349 988.575,403.504C987.731,402.66 986.741,402 985.607,401.525C984.472,401.05 983.298,400.812 982.084,400.812C980.817,400.812 979.63,401.063 978.521,401.565C977.413,402.066 976.437,402.726 975.592,403.544C974.748,404.362 974.075,405.325 973.573,406.433C973.072,407.542 972.821,408.729 972.821,409.996ZM1004.96,389.887L1004.96,427.729C1004.96,429.999 1004.83,432.031 1004.57,433.825C1004.3,435.619 1003.93,437.203 1003.46,438.575C1002.83,440.317 1001.84,441.94 1000.49,443.444C999.144,444.948 997.521,446.254 995.621,447.362C993.721,448.471 991.571,449.342 989.169,449.975C986.768,450.608 984.168,450.925 981.371,450.925C978.205,450.925 975.302,450.529 972.663,449.737C970.024,448.946 967.715,447.851 965.736,446.452C963.757,445.053 962.134,443.417 960.867,441.544C959.6,439.67 958.756,437.625 958.334,435.408L974.484,435.408C975.487,438.1 977.756,439.446 981.292,439.446C984.3,439.446 986.609,438.601 988.219,436.912C989.829,435.224 990.634,432.875 990.634,429.867L990.634,425.987C989.578,426.99 988.562,427.822 987.586,428.481C986.609,429.141 985.62,429.682 984.617,430.104C983.614,430.526 982.559,430.83 981.45,431.015C980.342,431.199 979.128,431.292 977.809,431.292C974.906,431.292 972.241,430.79 969.813,429.787C967.385,428.785 965.287,427.386 963.519,425.592C961.751,423.797 960.379,421.647 959.402,419.14C958.426,416.633 957.938,413.849 957.938,410.787C957.938,407.674 958.466,404.784 959.521,402.119C960.577,399.453 962.015,397.131 963.836,395.152C965.657,393.173 967.821,391.616 970.327,390.481C972.834,389.347 975.566,388.779 978.521,388.779C983.324,388.779 987.362,390.574 990.634,394.162L990.634,389.887L1004.96,389.887Z" style="fill:rgb(255,148,20);fill-rule:nonzero;"/>
        <path d="M1045.34,404.296C1044.86,402.29 1043.89,400.681 1042.41,399.467C1040.93,398.253 1039.14,397.646 1037.03,397.646C1034.81,397.646 1033,398.226 1031.6,399.387C1030.2,400.549 1029.32,402.185 1028.95,404.296L1045.34,404.296ZM1028.56,412.608C1028.56,418.783 1031.46,421.871 1037.26,421.871C1040.38,421.871 1042.72,420.604 1044.31,418.071L1058.16,418.071C1055.37,427.36 1048.37,432.004 1037.18,432.004C1033.75,432.004 1030.61,431.49 1027.76,430.46C1024.91,429.431 1022.47,427.967 1020.44,426.067C1018.41,424.167 1016.84,421.897 1015.73,419.258C1014.62,416.619 1014.07,413.664 1014.07,410.392C1014.07,407.014 1014.6,403.966 1015.65,401.248C1016.71,398.53 1018.21,396.221 1020.16,394.321C1022.12,392.421 1024.48,390.956 1027.25,389.927C1030.02,388.898 1033.15,388.383 1036.63,388.383C1040.06,388.383 1043.15,388.898 1045.89,389.927C1048.64,390.956 1050.96,392.447 1052.86,394.4C1054.76,396.353 1056.21,398.741 1057.21,401.565C1058.22,404.388 1058.72,407.568 1058.72,411.104L1058.72,412.608L1028.56,412.608Z" style="fill:rgb(255,148,20);fill-rule:nonzero;"/>
    </g>
    <g id="Image-Icon" serif:id="Image Icon" transform="matrix(12.9706,-2.37036,2.30244,12.599,189.86,440.135)">
        <path d="M21,15L21,18L24,18L24,20L21,20L21,23L19,23L19,20L16,20L16,18L19,18L19,15L21,15ZM21.008,3C21.556,3 22,3.445 22,3.993L22,13L20,13L20,5L4,5L4,18.999L14,9L17,12L17,14.829L14,11.828L6.827,19L14,19L14,21L2.992,21C2.444,21 2,20.555 2,20.007L2,3.993C2,3.445 2.455,3 2.992,3L21.008,3ZM8,7C9.105,7 10,7.895 10,9C10,10.105 9.105,11 8,11C6.895,11 6,10.105 6,9C6,7.895 6.895,7 8,7Z" style="fill:rgb(173,184,194);fill-rule:nonzero;"/>
    </g>
    <defs>
        <radialGradient id="_Radial1" cx="0" cy="0" r="1" gradientUnits="userSpaceOnUse" gradientTransform="matrix(1574.88,-779.72,-779.72,-1574.88,0,772)"><stop offset="0" style="stop-color:rgb(48,35,174);stop-opacity:1"/><stop offset="1" style="stop-color:rgb(200,109,215);stop-opacity:1"/></radialGradient>
    </defs>
</svg>
